<svg xmlns="http://www.w3.org/2000/svg" width="150" height="44" viewBox="0 0 150 44" fill="none"><path d="M95.2934 20.3783H82.8059C82.1894 20.3783 81.9224 20.1803 81.7724 20.0333C81.5174 19.7768 81.3914 19.4843 81.3914 19.1408C81.3914 18.7973 81.5174 18.4928 81.7679 18.2423C82.0004 18.0158 82.3394 17.9063 82.8059 17.9063H95.2934C96.0464 17.9063 96.6989 17.6663 97.2359 17.1968C97.7714 16.7303 98.0444 16.1573 98.0444 15.4973C98.0444 14.8043 97.7819 14.2238 97.2599 13.7723C96.7454 13.3178 96.0824 13.0868 95.2934 13.0868H86.9669C86.2124 13.0868 85.4924 12.9563 84.8279 12.7028C84.1454 12.4418 83.5604 12.0938 83.0429 11.6378C82.5329 11.1923 82.1234 10.6658 81.8309 10.0763C81.5414 9.49431 81.3914 8.86131 81.3914 8.19981C81.3914 7.53831 81.5414 6.9053 81.8309 6.3248C82.1234 5.7353 82.5344 5.2088 83.0429 4.7588C83.5544 4.3103 84.1559 3.95479 84.8279 3.69679C85.4939 3.44179 86.2154 3.31429 86.9669 3.31429H98.6414C99.2579 3.31429 99.5249 3.51229 99.6764 3.65929C99.9329 3.91429 100.056 4.2068 100.056 4.5518C100.056 4.9253 99.9299 5.2178 99.6659 5.4473C99.4019 5.6813 99.0764 5.7878 98.6429 5.7878H86.9684C86.6159 5.7878 86.2649 5.8553 85.9289 5.9873C85.6004 6.1163 85.3064 6.2963 85.0529 6.5198C84.8009 6.7403 84.5939 6.9968 84.4484 7.2848C84.2939 7.58031 84.2189 7.88631 84.2189 8.19681C84.2189 8.50731 84.2969 8.81631 84.4484 9.11031C84.5939 9.39531 84.7994 9.65631 85.0574 9.87831C85.3034 10.0988 85.5989 10.2758 85.9289 10.4048C86.2664 10.5398 86.6174 10.6058 86.9699 10.6058H95.2964C96.0479 10.6058 96.7724 10.7348 97.4519 10.9913C98.1419 11.2523 98.7269 11.5973 99.2354 12.0413C99.7364 12.4793 100.14 13.0043 100.434 13.5953C100.722 14.1773 100.872 14.8178 100.872 15.4928C100.872 16.1678 100.722 16.7828 100.434 17.3663C100.14 17.9543 99.7304 18.4823 99.2219 18.9293C98.7104 19.3763 98.1089 19.7348 97.4384 19.9913C96.7709 20.2463 96.0509 20.3738 95.2979 20.3738" fill="#19228D"/><path d="M148.587 20.3783H136.099C135.348 20.3783 134.628 20.2493 133.957 19.9958C133.284 19.7393 132.685 19.3793 132.171 18.9323C131.664 18.4868 131.256 17.9588 130.96 17.3708C130.669 16.7843 130.524 16.1543 130.524 15.4958V8.19981C130.524 7.53981 130.669 6.9098 130.96 6.3248C131.256 5.7353 131.662 5.2073 132.174 4.7573C132.685 4.3133 133.284 3.95479 133.96 3.69679C134.628 3.44179 135.348 3.31429 136.099 3.31429H148.587C149.2 3.31429 149.47 3.51229 149.62 3.66079C149.875 3.91729 150 4.2098 150 4.5503C150 4.9253 149.872 5.2178 149.608 5.4473C149.346 5.6783 149.013 5.7878 148.585 5.7878H136.098C135.744 5.7878 135.396 5.8553 135.057 5.9873C134.734 6.1133 134.44 6.2918 134.181 6.5153C133.924 6.7403 133.719 6.9998 133.575 7.2848C133.423 7.57581 133.345 7.88481 133.345 8.19831V15.4943C133.345 15.8063 133.423 16.1153 133.575 16.4093C133.719 16.6913 133.923 16.9478 134.178 17.1743C134.433 17.3993 134.73 17.5763 135.055 17.7038C135.385 17.8358 135.739 17.9018 136.096 17.9018H148.584C149.046 17.9018 149.388 18.0143 149.622 18.2438C149.875 18.4913 149.997 18.7838 149.997 19.1408C149.997 19.4978 149.872 19.7753 149.617 20.0318C149.466 20.1788 149.197 20.3768 148.584 20.3768M148.587 13.0853H136.119C135.691 13.0853 135.357 12.9743 135.093 12.7433C134.832 12.5138 134.706 12.2198 134.706 11.8478C134.706 11.5058 134.827 11.2133 135.087 10.9553C135.237 10.8053 135.504 10.6103 136.119 10.6103H148.587C149.2 10.6103 149.47 10.8083 149.62 10.9553C149.875 11.2133 150 11.5058 150 11.8478C150 12.2198 149.872 12.5138 149.611 12.7433C149.346 12.9743 149.014 13.0853 148.587 13.0853Z" fill="#19228D"/><path d="M74.8633 3.3128H62.3743C61.6243 3.3128 60.9043 3.4418 60.2383 3.6953C59.5603 3.9533 58.9618 4.3118 58.4503 4.7558C57.9403 5.2058 57.5323 5.7323 57.2413 6.32331C56.9458 6.90831 56.8003 7.53831 56.8003 8.19831V15.4943C56.8003 16.1528 56.9458 16.7828 57.2413 17.3693C57.5338 17.9588 57.9418 18.4853 58.4488 18.9308C58.9633 19.3793 59.5618 19.7378 60.2383 19.9943C60.9058 20.2493 61.6258 20.3768 62.3758 20.3768H74.8648C75.4783 20.3768 75.7483 20.1788 75.8983 20.0318C76.1533 19.7753 76.2778 19.4828 76.2778 19.1408C76.2778 18.7988 76.1563 18.4913 75.9028 18.2438C75.6688 18.0143 75.3268 17.9018 74.8648 17.9018H62.3758C62.0218 17.9018 61.6678 17.8358 61.3363 17.7038C61.0123 17.5763 60.7168 17.3978 60.4603 17.1743C60.2038 16.9493 60.0013 16.6913 59.8588 16.4093C59.7043 16.1153 59.6278 15.8063 59.6278 15.4943V8.19831C59.6278 7.88481 59.7043 7.57731 59.8573 7.28481C60.0028 6.99981 60.2053 6.74181 60.4633 6.51531C60.7213 6.29031 61.0153 6.11331 61.3363 5.98731C61.6753 5.85381 62.0263 5.7878 62.3758 5.7878H74.8648C75.2923 5.7878 75.6268 5.6783 75.8893 5.4473C76.1518 5.2178 76.2778 4.9253 76.2778 4.5503C76.2778 4.2083 76.1533 3.9158 75.8983 3.6608C75.7468 3.5123 75.4783 3.3143 74.8648 3.3143" fill="#19228D"/><path d="M62.5182 10.6088C61.9047 10.6088 61.6377 10.8053 61.4877 10.9538C61.2297 11.2118 61.1067 11.5043 61.1067 11.8463C61.1067 12.2183 61.2327 12.5123 61.4952 12.7418C61.7592 12.9728 62.0937 13.0838 62.5197 13.0838H74.8647C75.2907 13.0838 75.6267 12.9728 75.8892 12.7418C76.1517 12.5123 76.2777 12.2183 76.2777 11.8463C76.2777 11.5043 76.1532 11.2118 75.8982 10.9538C75.7467 10.8083 75.4782 10.6088 74.8647 10.6088H62.5197H62.5182Z" fill="#19228D"/><path d="M124.161 12.3878C123.993 12.0488 123.759 11.7473 123.469 11.4923C123.175 11.2358 122.832 11.0318 122.446 10.8833C122.065 10.7378 121.651 10.6643 121.222 10.6643H118.498L116.349 10.6628C115.735 10.6628 115.467 10.8593 115.318 11.0123C115.062 11.2658 114.937 11.5568 114.937 11.9018C114.937 12.2783 115.062 12.5648 115.327 12.7988C115.594 13.0328 115.918 13.1378 116.35 13.1378H118.5V13.1348H120.666C120.811 13.1348 120.955 13.1618 121.09 13.2158C121.224 13.2668 121.344 13.3418 121.449 13.4318C121.554 13.5248 121.636 13.6298 121.695 13.7438C121.756 13.8638 121.789 13.9898 121.789 14.1188V16.9613C121.789 17.0873 121.756 17.2148 121.695 17.3333C121.635 17.4488 121.552 17.5538 121.447 17.6468C121.342 17.7368 121.222 17.8103 121.09 17.8628C120.954 17.9168 120.81 17.9438 120.666 17.9438H117.679L117.676 17.9558H111.934C111.577 17.9558 111.228 17.8868 110.896 17.7548C110.568 17.6288 110.269 17.4473 110.019 17.2253C109.758 17.0003 109.555 16.7423 109.411 16.4588C109.26 16.1633 109.18 15.8558 109.18 15.5453V8.24781C109.18 7.93731 109.26 7.62831 109.41 7.33881C109.555 7.05081 109.761 6.79131 110.016 6.56931C110.271 6.34581 110.565 6.16731 110.893 6.03831C111.232 5.90481 111.583 5.83731 111.934 5.83731H122.911C123.348 5.83731 123.669 5.73231 123.936 5.49531C124.203 5.26281 124.326 4.9778 124.326 4.5998C124.326 4.2578 124.2 3.9653 123.945 3.7103C123.795 3.5603 123.523 3.3638 122.911 3.3638H111.934C111.181 3.3638 110.461 3.4913 109.795 3.7448C109.117 4.0043 108.517 4.3643 108.009 4.8098C107.502 5.25381 107.091 5.77881 106.795 6.37131C106.506 6.95481 106.362 7.58481 106.362 8.24632V15.5438C106.362 16.2038 106.507 16.8368 106.795 17.4173C107.091 18.0113 107.502 18.5363 108.01 18.9818C108.519 19.4288 109.117 19.7858 109.794 20.0453C110.463 20.3004 111.183 20.4293 111.936 20.4293H121.224C121.653 20.4293 122.067 20.3544 122.448 20.2104C122.835 20.0618 123.177 19.8578 123.469 19.6028C123.762 19.3463 123.996 19.0448 124.164 18.7058C124.332 18.3713 124.416 18.0113 124.416 17.6348V13.4588C124.416 13.0823 124.332 12.7223 124.164 12.3863" fill="#19228D"/><path d="M67.3572 38.3514H60.4482L59.0397 40.5549C58.8612 40.8279 58.6152 40.9524 58.3287 40.9524C57.8772 40.9524 57.5757 40.7469 57.5757 40.3914C57.5757 40.2549 57.6027 40.1454 57.7257 39.9669L63.1437 31.7169C63.3072 31.4709 63.5952 31.3614 63.8967 31.3479C64.1982 31.3479 64.4577 31.4709 64.6212 31.7169L70.0527 39.9534C70.1892 40.1319 70.2312 40.2549 70.2312 40.3914C70.2312 40.7469 69.9297 40.9524 69.4782 40.9524C69.2052 40.9524 68.9577 40.8294 68.7807 40.5549L67.3572 38.3514ZM61.1322 37.2984H66.6867L63.8952 32.9754L61.1307 37.2984H61.1322Z" fill="#19228D"/><path d="M76.0184 40.8834C73.6513 40.8834 72.4753 40.1589 72.4753 38.7219V36.4104C72.4753 34.9599 73.6513 34.2354 76.0184 34.2354H80.7524C81.2174 34.2354 81.4634 34.4274 81.4634 34.7964C81.4634 35.1654 81.2174 35.3574 80.7524 35.3574H75.9629C74.6218 35.3574 73.9378 35.6994 73.9378 36.3969V38.7369C73.9378 39.4209 74.6218 39.7764 75.9629 39.7764H80.7524C81.2174 39.7764 81.4634 39.9549 81.4634 40.3239C81.4634 40.6929 81.2174 40.8849 80.7524 40.8849H76.0184V40.8834Z" fill="#19228D"/><path d="M87.0327 40.8834C85.0767 40.8834 84.1047 40.2819 84.1047 39.0639V38.2839C84.1047 37.0794 85.0767 36.4779 87.0327 36.4779H92.8483V36.2724C92.8483 35.6289 92.2873 35.3139 91.1653 35.3139H89.2362C88.7847 35.3139 88.5522 35.1354 88.5522 34.7799C88.5522 34.4244 88.7847 34.2324 89.2362 34.2324H91.1653C93.2443 34.2324 94.2718 34.9164 94.2718 36.2709V38.9529C94.2718 40.2384 93.2863 40.8819 91.2898 40.8819H87.0342L87.0327 40.8834ZM92.8468 38.9124V37.4214H87.1407C86.0742 37.4214 85.5402 37.7094 85.5402 38.2554V38.9664C85.5402 39.5274 86.0742 39.8139 87.1407 39.8139H91.2043C92.2993 39.8139 92.8468 39.5124 92.8468 38.9109V38.9124Z" fill="#19228D"/><path d="M101.043 40.8834C98.7029 40.8834 97.5134 40.1589 97.5134 38.7219V36.4104C97.5134 34.9599 98.7044 34.2354 101.043 34.2354H105.873V31.7319C105.873 31.3629 106.132 31.1574 106.612 31.1574C107.092 31.1574 107.337 31.3629 107.337 31.7319V38.7234C107.337 40.1604 106.161 40.8849 103.807 40.8849H101.043V40.8834ZM105.873 38.7339V35.3544H101.002C99.6614 35.3544 98.9774 35.6964 98.9774 36.3939V38.7339C98.9774 39.4179 99.6614 39.7734 101.002 39.7734H103.848C105.189 39.7734 105.873 39.4179 105.873 38.7339Z" fill="#19228D"/><path d="M112.044 38.0094V38.8434C112.044 39.4869 112.674 39.8154 113.946 39.8154H115.971C116.422 39.8154 116.655 39.9939 116.655 40.3494C116.655 40.7049 116.422 40.8834 115.971 40.8834H113.946C111.729 40.8834 110.607 40.2129 110.607 38.8584V36.1764C110.607 34.8909 111.606 34.2339 113.589 34.2339H117.543C119.485 34.2339 120.457 34.8219 120.457 35.9859V37.5189C120.457 37.8474 120.238 38.0109 119.827 38.0109H112.042L112.044 38.0094ZM112.044 37.0659H118.912C118.995 37.0659 119.022 37.0254 119.022 36.9699V36.2589C119.022 35.6289 118.501 35.3154 117.435 35.3154H113.673C112.578 35.3154 112.045 35.6304 112.045 36.2589V37.0659H112.044Z" fill="#19228D"/><path d="M134.907 36.3534C134.907 35.6829 134.359 35.3544 133.264 35.3544H132.279C131.143 35.3544 130.582 35.6829 130.582 36.3534V40.3764C130.582 40.7589 130.35 40.9509 129.871 40.9509C129.393 40.9509 129.147 40.7589 129.147 40.3764V36.3534C129.147 35.6829 128.599 35.3544 127.464 35.3544H126.478C125.397 35.3544 124.851 35.6829 124.851 36.3534V40.3764C124.851 40.7589 124.605 40.9509 124.126 40.9509C123.648 40.9509 123.402 40.7589 123.402 40.3764V36.3534C123.402 34.9449 124.441 34.2324 126.522 34.2324H127.521C128.547 34.2324 129.34 34.5054 129.874 35.0259C130.422 34.5054 131.202 34.2324 132.228 34.2324H133.227C135.321 34.2324 136.36 34.9434 136.36 36.3534V40.3764C136.36 40.7589 136.114 40.9509 135.636 40.9509C135.157 40.9509 134.911 40.7589 134.911 40.3764V36.3534H134.907Z" fill="#19228D"/><path d="M143.924 43.1814C143.472 43.1814 143.24 43.0029 143.24 42.6474C143.24 42.2919 143.472 42.1134 143.924 42.1134H145.989C147.234 42.1134 147.878 41.7849 147.878 41.1414V40.6764H143.13C140.777 40.6764 139.601 39.8424 139.601 38.1999V34.7379C139.601 34.3689 139.847 34.1634 140.325 34.1634C140.804 34.1634 141.05 34.3689 141.05 34.7379V38.2674C141.05 39.1839 141.693 39.6219 142.979 39.6219H147.876V34.7379C147.876 34.3689 148.122 34.1634 148.587 34.1634C149.079 34.1634 149.327 34.3689 149.327 34.7379V41.1414C149.327 42.5094 148.205 43.1799 145.988 43.1799H143.922L143.924 43.1814Z" fill="#19228D"/><path d="M21.8487 24.7703L24.3237 26.3738C24.7392 26.6423 25.2672 26.2583 25.1397 25.7813L24.3792 22.9313C24.3237 22.7258 24.3957 22.5068 24.5607 22.3718L26.8497 20.5133C27.2337 20.2013 27.0327 19.5803 26.5377 19.5533L23.5932 19.3958C23.3802 19.3838 23.1942 19.2488 23.1177 19.0508L22.0572 16.2998C21.8787 15.8378 21.2262 15.8378 21.0477 16.2998L19.9872 19.0508C19.9107 19.2503 19.7247 19.3853 19.5117 19.3958L16.5672 19.5533C16.0737 19.5803 15.8712 20.2013 16.2552 20.5133L18.5442 22.3718C18.7092 22.5068 18.7812 22.7243 18.7257 22.9313L17.9652 25.7813C17.8377 26.2598 18.3657 26.6438 18.7812 26.3738L21.2562 24.7703C21.4347 24.6548 21.6657 24.6548 21.8442 24.7703H21.8487Z" fill="#FDC000"/><path d="M19.5131 13.4963C14.3531 19.4588 6.61909 23.6963 7.6736 33.7689C3.10608 29.8689 -0.484926 26.2284 0.0535751 20.4398C0.494576 15.6923 3.18408 12.1733 7.5116 10.3703C12.0386 8.4848 15.8276 10.6973 19.5131 13.4978V13.4963Z" fill="#19228D"/><path d="M23.5917 30.3234C28.6932 24.4718 36.3627 20.1563 35.3157 10.3058C38.5183 12.7598 40.8568 15.2843 42.2143 18.5768C44.2558 23.5268 42.1498 29.3874 37.2327 32.7024C33.3192 35.3394 27.8262 34.4049 23.5902 30.3234H23.5917Z" fill="#19228D"/><path d="M30.1032 20.3153C23.9427 15.4343 19.6332 8.0903 10.8281 7.4033C15.0971 0.711778 22.4517 -1.52323 27.5562 2.18028C33.9072 6.7883 35.0517 14.3708 30.1047 20.3168L30.1032 20.3153Z" fill="#232FC7"/><path d="M12.6986 23.5748C18.9206 28.3374 23.1371 35.6979 32.2511 36.5649C28.6196 40.4859 25.3271 44.0994 19.9001 43.5429C15.3491 43.0764 12.4076 40.0074 10.7125 36.0294C8.84654 31.6524 9.76155 27.4673 12.6986 23.5748Z" fill="#232FC7"/></svg>